<svg width="677" height="140" viewBox="0 0 677 140" fill="none" xmlns="http://www.w3.org/2000/svg">
<g clip-path="url(#clip0_19_21)">
<path d="M677.082 11.275L636.886 71.7392L676.912 132.033H652.385L624.282 87.9197L595.838 132.033H571.823L612.19 71.5689L572.164 11.275H596.69L624.793 55.5586L653.066 11.275H677.082Z" fill="black"/>
<path d="M562.66 37.9134L544.265 43.7044C542.903 36.2103 536.941 25.1393 520.59 25.1393C508.327 25.1393 499.811 33.4851 499.811 42.5122C499.811 50.1766 504.411 55.9676 513.948 58.0114L531.321 61.5882C552.611 65.8462 564.023 79.3017 564.023 96.3341C564.023 115.07 548.865 132.953 521.272 132.953C490.614 132.953 476.477 113.195 474.604 95.8229L493.68 90.3725C495.042 102.976 503.899 114.559 521.272 114.559C535.75 114.559 543.244 107.404 543.244 97.8665C543.244 89.8613 537.453 83.73 527.063 81.5158L510.03 77.9391C491.637 74.0217 479.373 62.2695 479.373 44.0451C479.373 23.6064 497.938 7.08532 520.42 7.08532C548.865 7.08532 559.935 24.2878 562.66 37.9134Z" fill="black"/>
<path d="M363.171 69.8489C363.171 98.9741 383.269 113.451 403.537 113.451C423.975 113.451 444.074 98.9741 444.074 69.8489C444.074 40.724 423.975 26.2467 403.537 26.2467C383.269 26.2467 363.171 40.724 363.171 69.8489ZM342.222 69.8489C342.222 30.3344 371.688 7.00036 403.537 7.00036C435.217 7.00036 465.024 30.3344 465.024 69.8489C465.024 109.534 435.217 132.868 403.537 132.868C371.688 132.868 342.222 109.534 342.222 69.8489Z" fill="black"/>
<path d="M269.438 62.5248H290.729C303.673 62.5248 311.508 55.5417 311.508 43.9598C311.508 32.378 303.673 25.0541 290.729 25.0541H269.438V62.5248ZM293.795 80.579H269.438V132.11H249V7H293.795C316.958 7 332.287 22.6696 332.287 43.7895C332.287 65.0796 316.958 80.579 293.795 80.579Z" fill="black"/>
<path d="M69.6113 3.97791C69.6113 1.78104 67.8302 0 65.6334 0H38.7835C36.5867 0 34.8056 1.78104 34.8056 3.97791V17.4028C34.8056 27.0141 27.0141 34.8056 17.4028 34.8056H3.97791C1.78105 34.8056 0 36.5867 0 38.7835V100.439C0 102.636 1.78105 104.417 3.97791 104.417L17.4028 104.437C27.0141 104.437 34.8055 112.229 34.8056 121.84V135.245C34.8056 137.441 36.5867 139.223 38.7835 139.223H65.6334C67.8302 139.223 69.6113 137.441 69.6113 135.245V121.84C69.6114 112.229 77.4028 104.437 87.0141 104.437H99.4997C102.513 104.437 105.268 102.733 106.616 100.038L132.905 47.444L132.883 47.504C135.121 43.4432 142.107 34.8254 152.647 34.8254L152.568 34.8056H156.625C166.218 34.8056 173.997 42.5667 174.027 52.1522V87.0901C173.998 96.3954 166.667 103.981 157.462 104.417H143.2C141.003 104.417 139.222 106.198 139.222 108.395V135.245C139.222 137.441 141.003 139.222 143.2 139.223H170.05C172.246 139.223 174.027 137.441 174.027 135.245L174.028 121.84C174.028 112.229 181.82 104.437 191.431 104.437L204.855 104.417C207.052 104.417 208.833 102.636 208.833 100.439V38.7835C208.833 36.5867 207.052 34.8056 204.855 34.8056H191.431L190.981 34.7998C181.578 34.5614 174.028 26.8638 174.028 17.4028L174.027 1.98896C174.027 0.89052 173.137 0 172.038 0H141.211C140.112 7.03081e-05 139.222 0.890564 139.222 1.98896V17.4576C139.193 26.8935 131.655 34.5618 122.269 34.7998L121.82 34.8056H109.334C106.321 34.8057 103.566 36.5084 102.218 39.2038L75.3376 92.9795C72.3634 97.2644 63.9521 104.417 54.1974 104.417H51.3715C42.1489 103.98 34.8057 96.3652 34.8056 87.0345V52.2084C34.8057 42.5972 42.5972 34.8056 52.2084 34.8056H65.6334C67.8302 34.8056 69.6113 33.0246 69.6113 30.8277V3.97791Z" fill="black"/>
</g>
<defs>
<clipPath id="clip0_19_21">
<rect width="677" height="140" fill="white"/>
</clipPath>
</defs>
</svg>
